name rise45.9887peak57.8056fall74.9286.mot
datacolumns 19
datarows 36
range 11.72996000000000 11.78829600000000
endheader
time	ground_force1_vx	ground_force1_vy	ground_force1_vz	ground_force1_px	ground_force1_py	ground_force1_pz	ground_force2_vx	ground_force2_vy	ground_force2_vz	ground_force2_px	ground_force2_py	ground_force2_pz	ground_torque1_x	ground_torque1_y	ground_torque1_z	ground_torque2_x	ground_torque2_y	ground_torque2_z	
11.72996000000000	15.70873300000000	704.08950800000002	36.24182200000000	0.26748900000000	0.00000000000000	0.09227900000000	0.00000000000000	0.00000000000000	0.00000000000000	0.00000000000000	0.00000000000000	0.00000000000000	0.00000000000000	16.22481100000000	0.00000000000000	0.00000000000000	0.00000000000000	0.00000000000000	
11.73162200000000	15.39675100000000	705.06804000000000	36.21712100000000	0.26708900000000	0.00000000000000	0.09223100000000	0.00000000000000	0.00000000000000	0.00000000000000	0.00000000000000	0.00000000000000	0.00000000000000	0.00000000000000	16.25633000000000	0.00000000000000	0.00000000000000	0.00000000000000	0.00000000000000	
11.73329000000000	15.08009300000000	706.07428100000004	36.19352900000000	0.26671300000000	0.00000000000000	0.09218200000000	0.00000000000000	0.00000000000000	0.00000000000000	0.00000000000000	0.00000000000000	0.00000000000000	0.00000000000000	16.29047600000000	0.00000000000000	0.00000000000000	0.00000000000000	0.00000000000000	
11.73495900000000	14.75839000000000	707.10622400000000	36.17085300000000	0.26635700000000	0.00000000000000	0.09213100000000	0.00000000000000	0.00000000000000	0.00000000000000	0.00000000000000	0.00000000000000	0.00000000000000	0.00000000000000	16.32703800000000	0.00000000000000	0.00000000000000	0.00000000000000	0.00000000000000	
11.73662400000000	14.43128000000000	708.16195600000003	36.14891200000000	0.26601700000000	0.00000000000000	0.09207800000000	0.00000000000000	0.00000000000000	0.00000000000000	0.00000000000000	0.00000000000000	0.00000000000000	0.00000000000000	16.36581100000000	0.00000000000000	0.00000000000000	0.00000000000000	0.00000000000000	
11.73829000000000	14.09841500000000	709.23965899999996	36.12754200000000	0.26569200000000	0.00000000000000	0.09202500000000	0.00000000000000	0.00000000000000	0.00000000000000	0.00000000000000	0.00000000000000	0.00000000000000	0.00000000000000	16.40659800000000	0.00000000000000	0.00000000000000	0.00000000000000	0.00000000000000	
11.73995500000000	13.75945500000000	710.33761400000003	36.10659500000000	0.26537800000000	0.00000000000000	0.09196900000000	0.00000000000000	0.00000000000000	0.00000000000000	0.00000000000000	0.00000000000000	0.00000000000000	0.00000000000000	16.44920800000000	0.00000000000000	0.00000000000000	0.00000000000000	0.00000000000000	
11.74162500000000	13.41407300000000	711.45420400000000	36.08593800000000	0.26507200000000	0.00000000000000	0.09191300000000	0.00000000000000	0.00000000000000	0.00000000000000	0.00000000000000	0.00000000000000	0.00000000000000	0.00000000000000	16.49345800000000	0.00000000000000	0.00000000000000	0.00000000000000	0.00000000000000	
11.74329400000000	13.06195700000000	712.58790999999997	36.06545700000000	0.26477000000000	0.00000000000000	0.09185700000000	0.00000000000000	0.00000000000000	0.00000000000000	0.00000000000000	0.00000000000000	0.00000000000000	0.00000000000000	16.53917400000000	0.00000000000000	0.00000000000000	0.00000000000000	0.00000000000000	
11.74495800000000	12.70280800000000	713.73731799999996	36.04505300000000	0.26447000000000	0.00000000000000	0.09179900000000	0.00000000000000	0.00000000000000	0.00000000000000	0.00000000000000	0.00000000000000	0.00000000000000	0.00000000000000	16.58619000000000	0.00000000000000	0.00000000000000	0.00000000000000	0.00000000000000	
11.74662800000000	12.33634200000000	714.90111300000001	36.02464500000000	0.26416800000000	0.00000000000000	0.09174100000000	0.00000000000000	0.00000000000000	0.00000000000000	0.00000000000000	0.00000000000000	0.00000000000000	0.00000000000000	16.63435000000000	0.00000000000000	0.00000000000000	0.00000000000000	0.00000000000000	
11.74828800000000	11.96229300000000	716.07808000000000	36.00416900000000	0.26386200000000	0.00000000000000	0.09168300000000	0.00000000000000	0.00000000000000	0.00000000000000	0.00000000000000	0.00000000000000	0.00000000000000	0.00000000000000	16.68350600000000	0.00000000000000	0.00000000000000	0.00000000000000	0.00000000000000	
11.74995700000000	11.58041200000000	717.26710700000001	35.98357700000000	0.26354800000000	0.00000000000000	0.09162500000000	0.00000000000000	0.00000000000000	0.00000000000000	0.00000000000000	0.00000000000000	0.00000000000000	0.00000000000000	16.73352200000000	0.00000000000000	0.00000000000000	0.00000000000000	0.00000000000000	
11.75162800000000	11.19046800000000	718.46717599999999	35.96284100000000	0.26322400000000	0.00000000000000	0.09156700000000	0.00000000000000	0.00000000000000	0.00000000000000	0.00000000000000	0.00000000000000	0.00000000000000	0.00000000000000	16.78427000000000	0.00000000000000	0.00000000000000	0.00000000000000	0.00000000000000	
11.75329500000000	10.79225000000000	719.67736700000000	35.94194700000000	0.26288600000000	0.00000000000000	0.09151000000000	0.00000000000000	0.00000000000000	0.00000000000000	0.00000000000000	0.00000000000000	0.00000000000000	0.00000000000000	16.83563400000000	0.00000000000000	0.00000000000000	0.00000000000000	0.00000000000000	
11.75495900000000	10.38556900000000	720.89685299999996	35.92090000000000	0.26253300000000	0.00000000000000	0.09145300000000	0.00000000000000	0.00000000000000	0.00000000000000	0.00000000000000	0.00000000000000	0.00000000000000	0.00000000000000	16.88750800000000	0.00000000000000	0.00000000000000	0.00000000000000	0.00000000000000	
11.75662300000000	9.97025500000000	722.12489600000004	35.89972300000000	0.26216100000000	0.00000000000000	0.09139600000000	0.00000000000000	0.00000000000000	0.00000000000000	0.00000000000000	0.00000000000000	0.00000000000000	0.00000000000000	16.93979600000000	0.00000000000000	0.00000000000000	0.00000000000000	0.00000000000000	
11.75829500000000	9.54616100000000	723.36084700000004	35.87845300000000	0.26176800000000	0.00000000000000	0.09134100000000	0.00000000000000	0.00000000000000	0.00000000000000	0.00000000000000	0.00000000000000	0.00000000000000	0.00000000000000	16.99241300000000	0.00000000000000	0.00000000000000	0.00000000000000	0.00000000000000	
11.75995600000000	9.11316500000000	724.60413700000004	35.85714400000000	0.26135100000000	0.00000000000000	0.09128700000000	0.00000000000000	0.00000000000000	0.00000000000000	0.00000000000000	0.00000000000000	0.00000000000000	0.00000000000000	17.04528400000000	0.00000000000000	0.00000000000000	0.00000000000000	0.00000000000000	
11.76162700000000	8.67116800000000	725.85428000000002	35.83587000000000	0.26090900000000	0.00000000000000	0.09123300000000	0.00000000000000	0.00000000000000	0.00000000000000	0.00000000000000	0.00000000000000	0.00000000000000	0.00000000000000	17.09834600000000	0.00000000000000	0.00000000000000	0.00000000000000	0.00000000000000	
11.76329200000000	8.22009400000000	727.11086200000000	35.81471500000000	0.26044000000000	0.00000000000000	0.09118200000000	0.00000000000000	0.00000000000000	0.00000000000000	0.00000000000000	0.00000000000000	0.00000000000000	0.00000000000000	17.15154500000000	0.00000000000000	0.00000000000000	0.00000000000000	0.00000000000000	
11.76495600000000	7.75989500000000	728.37354100000005	35.79378400000000	0.25994100000000	0.00000000000000	0.09113100000000	0.00000000000000	0.00000000000000	0.00000000000000	0.00000000000000	0.00000000000000	0.00000000000000	0.00000000000000	17.20483700000000	0.00000000000000	0.00000000000000	0.00000000000000	0.00000000000000	
11.76662100000000	7.29054700000000	729.64203899999995	35.77319400000000	0.25941100000000	0.00000000000000	0.09108300000000	0.00000000000000	0.00000000000000	0.00000000000000	0.00000000000000	0.00000000000000	0.00000000000000	0.00000000000000	17.25818900000000	0.00000000000000	0.00000000000000	0.00000000000000	0.00000000000000	
11.76828600000000	6.81205400000000	730.91614300000003	35.75307700000000	0.25884900000000	0.00000000000000	0.09103600000000	0.00000000000000	0.00000000000000	0.00000000000000	0.00000000000000	0.00000000000000	0.00000000000000	0.00000000000000	17.31157600000000	0.00000000000000	0.00000000000000	0.00000000000000	0.00000000000000	
11.76996100000000	6.32444400000000	732.19569200000001	35.73358000000000	0.25825300000000	0.00000000000000	0.09099100000000	0.00000000000000	0.00000000000000	0.00000000000000	0.00000000000000	0.00000000000000	0.00000000000000	0.00000000000000	17.36498300000000	0.00000000000000	0.00000000000000	0.00000000000000	0.00000000000000	
11.77162700000000	5.82777400000000	733.48057800000004	35.71486400000000	0.25762200000000	0.00000000000000	0.09094800000000	0.00000000000000	0.00000000000000	0.00000000000000	0.00000000000000	0.00000000000000	0.00000000000000	0.00000000000000	17.41840500000000	0.00000000000000	0.00000000000000	0.00000000000000	0.00000000000000	
11.77329300000000	5.32212900000000	734.77073800000005	35.69710200000000	0.25695500000000	0.00000000000000	0.09090700000000	0.00000000000000	0.00000000000000	0.00000000000000	0.00000000000000	0.00000000000000	0.00000000000000	0.00000000000000	17.47184200000000	0.00000000000000	0.00000000000000	0.00000000000000	0.00000000000000	
11.77496000000000	4.80761800000000	736.06615099999999	35.68048100000000	0.25625100000000	0.00000000000000	0.09086800000000	0.00000000000000	0.00000000000000	0.00000000000000	0.00000000000000	0.00000000000000	0.00000000000000	0.00000000000000	17.52530600000000	0.00000000000000	0.00000000000000	0.00000000000000	0.00000000000000	
11.77662400000000	4.28438000000000	737.36683100000005	35.66520000000000	0.25551000000000	0.00000000000000	0.09083200000000	0.00000000000000	0.00000000000000	0.00000000000000	0.00000000000000	0.00000000000000	0.00000000000000	0.00000000000000	17.57881200000000	0.00000000000000	0.00000000000000	0.00000000000000	0.00000000000000	
11.77828700000000	3.75258000000000	738.67282200000000	35.65146800000000	0.25473200000000	0.00000000000000	0.09079700000000	0.00000000000000	0.00000000000000	0.00000000000000	0.00000000000000	0.00000000000000	0.00000000000000	0.00000000000000	17.63238400000000	0.00000000000000	0.00000000000000	0.00000000000000	0.00000000000000	
11.77995800000000	3.21241000000000	739.98419400000000	35.63950500000000	0.25391600000000	0.00000000000000	0.09076600000000	0.00000000000000	0.00000000000000	0.00000000000000	0.00000000000000	0.00000000000000	0.00000000000000	0.00000000000000	17.68605200000000	0.00000000000000	0.00000000000000	0.00000000000000	0.00000000000000	
11.78162300000000	2.66408700000000	741.30103799999995	35.62954200000000	0.25306200000000	0.00000000000000	0.09073600000000	0.00000000000000	0.00000000000000	0.00000000000000	0.00000000000000	0.00000000000000	0.00000000000000	0.00000000000000	17.73985000000000	0.00000000000000	0.00000000000000	0.00000000000000	0.00000000000000	
11.78329400000000	2.10785700000000	742.62345900000003	35.62181800000000	0.25217200000000	0.00000000000000	0.09070900000000	0.00000000000000	0.00000000000000	0.00000000000000	0.00000000000000	0.00000000000000	0.00000000000000	0.00000000000000	17.79381800000000	0.00000000000000	0.00000000000000	0.00000000000000	0.00000000000000	
11.78495400000000	1.54398800000000	743.95157500000005	35.61658200000000	0.25124400000000	0.00000000000000	0.09068400000000	0.00000000000000	0.00000000000000	0.00000000000000	0.00000000000000	0.00000000000000	0.00000000000000	0.00000000000000	17.84800100000000	0.00000000000000	0.00000000000000	0.00000000000000	0.00000000000000	
11.78662000000000	0.97277400000000	745.28550700000005	35.61408800000000	0.25028000000000	0.00000000000000	0.09066200000000	0.00000000000000	0.00000000000000	0.00000000000000	0.00000000000000	0.00000000000000	0.00000000000000	0.00000000000000	17.90244300000000	0.00000000000000	0.00000000000000	0.00000000000000	0.00000000000000	
11.78829600000000	0.39453300000000	746.62538099999995	35.61459800000000	0.24928100000000	0.00000000000000	0.09064200000000	0.00000000000000	0.00000000000000	0.00000000000000	0.00000000000000	0.00000000000000	0.00000000000000	0.00000000000000	17.95719700000000	0.00000000000000	0.00000000000000	0.00000000000000	0.00000000000000	
